<svg width="18pt" height="18pt" viewBox="0 0 2160 2160" xmlns="http://www.w3.org/2000/svg"><g fill="#fff" fill-rule="evenodd"><path d="M1080 1272c131.216 0 253.995-63.957 344.576-170.18C1509.826 1001.849 1560 871.604 1560 744c0-127.604-50.174-257.849-135.424-357.82C1333.996 279.957 1211.216 216 1080 216s-253.995 63.957-344.576 170.18C650.174 486.151 600 616.396 600 744c0 127.604 50.174 257.849 135.424 357.82C826.004 1208.043 948.784 1272 1080 1272zm0-192c-71.315 0-142.453-37.057-198.482-102.762C825.278 911.286 792 824.902 792 744c0-80.902 33.278-167.286 89.518-233.238C937.548 445.057 1008.685 408 1080 408s142.453 37.057 198.482 102.762C1334.722 576.714 1368 663.098 1368 744c0 80.902-33.278 167.286-89.518 233.238C1222.452 1042.943 1151.315 1080 1080 1080z"/><path d="M1944 1848c0 53.02-42.98 96-96 96H312c-53.02 0-96-42.98-96-96 0-2.512.07-6.272.257-11.201.286-7.518.79-16.039 1.561-25.485 2.144-26.265 5.964-55.232 11.877-86.277 16.868-88.552 47.265-177.211 94.954-260.666 62.059-108.604 148.815-199.698 262.98-266.294C719.891 1120.924 883.585 1080 1080 1080s360.108 40.924 492.372 118.077c114.164 66.596 200.92 157.69 262.98 266.294 47.688 83.455 78.085 172.114 94.952 260.666 5.914 31.045 9.734 60.012 11.878 86.277.77 9.446 1.275 17.967 1.56 25.485.189 4.929.258 8.689.258 11.201zm-1523.926-96.016H1740c-13.437-65.928-36.62-131.576-71.351-192.355-45.941-80.396-109.185-146.802-193.02-195.706C1373.891 1304.576 1243.585 1272 1080 1272s-293.892 32.576-395.628 91.923c-83.836 48.904-147.08 115.31-193.02 195.706-34.736 60.786-57.841 126.419-71.278 192.355z"/></g></svg>