<svg width="18pt" height="18pt" viewBox="0 0 2160 2160" xmlns="http://www.w3.org/2000/svg"><path d="M600.113 888c-.011-2.11-.035-6.822.004-8.602.135-6.071.374-12.999.742-20.714 1.03-21.635 2.871-45.574 5.728-71.285 8.194-73.749 22.981-147.682 46.34-217.757 31.347-94.044 75.894-174.227 137.19-235.524C866.334 257.903 964.107 216 1080 216c115.894 0 213.667 41.903 289.882 118.118 61.297 61.297 105.844 141.48 137.192 235.524 23.358 70.075 38.145 144.008 46.339 217.757 2.857 25.71 4.698 49.65 5.728 71.285.368 7.715.607 14.643.742 20.714.049 2.216.081 4.191.1 5.917.007.688.006 1.85.003 2.685h96.015c106.04 0 191.999 85.96 191.999 191.999v672.002c0 106.03-85.96 191.999-191.998 191.999H503.999C397.959 1944 312 1858.04 312 1752.001v-672.002C312 973.969 397.96 888 503.999 888h96.114zm191.957 0h575.92a509.917 509.917 0 0 0-.06-4.336c-.1-4.475-.283-9.782-.571-15.848-.845-17.74-2.379-37.676-4.772-59.215-6.806-61.251-19.019-122.318-37.66-178.243-22.653-67.956-53.106-122.773-90.81-160.476C1193.334 429.097 1144.107 408 1080 408s-113.333 21.097-154.118 61.882c-37.703 37.703-68.156 92.52-90.808 160.476-18.642 55.925-30.855 116.992-37.661 178.243-2.393 21.54-3.927 41.475-4.772 59.215a631.585 631.585 0 0 0-.57 15.848c-.026 1.12-.007 3.04 0 4.336zM504 1080v672h1152v-672H504z" fill="#999" fill-rule="evenodd"/></svg>