<svg width="18pt" height="18pt" viewBox="0 0 2160 2160" xmlns="http://www.w3.org/2000/svg"><path d="M120 503.999C120 397.96 205.954 312 312.001 312H1848C1954.039 312 2040 397.96 2040 503.999v1152.003c0 106.037-85.954 191.998-192.001 191.998H312C205.961 1848 120 1762.04 120 1656.002V503.999zm192 96.006v575.99c0 53.034 42.977 96.005 95.993 96.005h1344.014c53.005 0 95.993-42.983 95.993-96.005v-575.99c0-53.034-42.977-96.005-95.993-96.005H407.993C354.988 504 312 546.983 312 600.005zM312 1560c0 53.016 42.977 96 95.991 96h960.018c53.01 0 95.991-42.98 95.991-96 0-53.016-42.977-96-95.991-96H407.991c-53.01 0-95.991 42.98-95.991 96zm1344 0c0 53.016 42.98 96 96 96 53.016 0 96-42.98 96-96 0-53.016-42.98-96-96-96-53.016 0-96 42.98-96 96z" fill="#fff" fill-rule="evenodd"/></svg>