<svg width="18pt" height="18pt" viewBox="0 0 2160 2160" xmlns="http://www.w3.org/2000/svg"><g fill="#fff" transform="translate(120 120)" fill-rule="evenodd"><path d="M960 1920c530.193 0 960-429.807 960-960S1490.193 0 960 0 0 429.807 0 960s429.807 960 960 960zm0-192c424.155 0 768-343.845 768-768s-343.845-768-768-768-768 343.845-768 768 343.845 768 768 768z"/><rect x="864" y="384" width="192" height="672" rx="96"/><path d="M911.124 877.714c45.918-26.51 104.634-10.777 131.142 35.136 26.51 45.916 10.774 104.631-35.142 131.14l-332.547 191.997c-45.918 26.51-104.634 10.777-131.142-35.137-26.51-45.916-10.774-104.63 35.142-131.14l332.547-191.996z"/></g></svg>